<svg width="299" height="187" viewBox="0 0 299 187" fill="none" xmlns="http://www.w3.org/2000/svg">
<g clip-path="url(#clip0_265_14162)">
<mask id="mask0_265_14162" style="mask-type:luminance" maskUnits="userSpaceOnUse" x="0" y="0" width="299" height="203">
<path d="M298.657 0H0V202.37H298.657V0Z" fill="white"/>
</mask>
<g mask="url(#mask0_265_14162)">
<path d="M151.093 135.401H17.1632C12.9731 135.401 9.57937 132.002 9.57937 127.817V41.5301C9.57937 39.3264 11.3667 37.5391 13.5704 37.5391H155.084V131.41C155.084 133.613 153.297 135.401 151.093 135.401Z" fill="#F7F0F0"/>
<g opacity="0.3">
<path d="M155.084 37.5392V131.41C155.084 133.613 153.297 135.401 151.093 135.401H17.1632C12.9731 135.401 9.57937 132.003 9.57937 127.817V41.5302C9.57937 39.3266 11.3667 37.5392 13.5704 37.5392H155.084ZM157.799 34.8242H13.5704C9.8735 34.8242 6.86439 37.8333 6.86439 41.5302V127.817C6.86439 133.496 11.4844 138.116 17.1632 138.116H151.093C154.79 138.116 157.799 135.107 157.799 131.41V34.8242Z" fill="#5BAEE8"/>
</g>
<path d="M9.57937 37.5391H44.9466V135.401H12.7242C10.9866 135.401 9.57937 133.989 9.57937 132.256V37.5391Z" fill="#3182CF"/>
<path d="M12.5025 33.2856H152.116C153.741 33.2856 155.057 34.6024 155.057 36.2269V37.5346H9.56128V36.2269C9.56128 34.6024 10.878 33.2856 12.5025 33.2856Z" fill="white"/>
<path d="M78.006 91.115H52.6798C51.0454 91.115 49.7204 92.4399 49.7204 94.0743V127.301C49.7204 128.936 51.0454 130.261 52.6798 130.261H78.006C79.6404 130.261 80.9654 128.936 80.9654 127.301V94.0743C80.9654 92.4399 79.6404 91.115 78.006 91.115Z" fill="white"/>
<path d="M112.224 91.115H86.8976C85.2632 91.115 83.9383 92.4399 83.9383 94.0743V127.301C83.9383 128.936 85.2632 130.261 86.8976 130.261H112.224C113.858 130.261 115.183 128.936 115.183 127.301V94.0743C115.183 92.4399 113.858 91.115 112.224 91.115Z" fill="white"/>
<path d="M146.849 91.115H121.523C119.888 91.115 118.563 92.4399 118.563 94.0743V127.301C118.563 128.936 119.888 130.261 121.523 130.261H146.849C148.483 130.261 149.808 128.936 149.808 127.301V94.0743C149.808 92.4399 148.483 91.115 146.849 91.115Z" fill="white"/>
<g opacity="0.3">
<path d="M129.835 107.142L137.405 97.1287C137.894 96.4861 138.862 96.4907 139.338 97.1423L146.718 107.156C147.306 107.952 146.736 109.079 145.745 109.079H130.794C129.799 109.079 129.229 107.939 129.831 107.147L129.835 107.142Z" fill="#4FA1E4"/>
<path opacity="0.5" d="M122.432 107.142L130.003 97.1287C130.491 96.4861 131.46 96.4907 131.935 97.1423L139.315 107.156C139.903 107.952 139.333 109.079 138.342 109.079H123.392C122.396 109.079 121.826 107.939 122.428 107.147L122.432 107.142Z" fill="#4FA1E4"/>
<path d="M60.3858 107.142L67.9561 97.1287C68.4448 96.4861 69.4131 96.4907 69.8882 97.1423L77.2685 107.156C77.8567 107.952 77.2866 109.079 76.2956 109.079H61.3451C60.3496 109.079 59.7794 107.939 60.3813 107.147L60.3858 107.142Z" fill="#4FA1E4"/>
<path opacity="0.5" d="M52.9829 107.142L60.5532 97.1287C61.0419 96.4861 62.0103 96.4907 62.4854 97.1423L69.8656 107.156C70.4539 107.952 69.8837 109.079 68.8927 109.079H53.9422C52.9467 109.079 52.3766 107.939 52.9784 107.147L52.9829 107.142Z" fill="#4FA1E4"/>
<path d="M94.9611 107.142L102.531 97.1287C103.02 96.4861 103.988 96.4907 104.464 97.1423L111.844 107.156C112.432 107.952 111.862 109.079 110.871 109.079H95.9204C94.9249 109.079 94.3548 107.939 94.9566 107.147L94.9611 107.142Z" fill="#4FA1E4"/>
<path opacity="0.5" d="M87.5628 107.142L95.1331 97.1287C95.6218 96.4861 96.5901 96.4907 97.0652 97.1423L104.445 107.156C105.034 107.952 104.464 109.079 103.473 109.079H88.5221C87.5266 109.079 86.9564 107.939 87.5583 107.147L87.5628 107.142Z" fill="#4FA1E4"/>
</g>
<g opacity="0.2">
<path d="M124.03 115.713H144.387" stroke="#3182CF" stroke-width="2.60186" stroke-linecap="round" stroke-linejoin="round"/>
<path d="M124.097 121.812H144.455" stroke="#3182CF" stroke-width="2.60186" stroke-linecap="round" stroke-linejoin="round"/>
</g>
<g opacity="0.2">
<path d="M54.8925 115.713H75.2503" stroke="#3182CF" stroke-width="2.60186" stroke-linecap="round" stroke-linejoin="round"/>
<path d="M54.9604 121.812H75.3182" stroke="#3182CF" stroke-width="2.60186" stroke-linecap="round" stroke-linejoin="round"/>
</g>
<g opacity="0.2">
<path d="M89.2461 115.713H109.604" stroke="#3182CF" stroke-width="2.60186" stroke-linecap="round" stroke-linejoin="round"/>
<path d="M89.314 121.812H109.672" stroke="#3182CF" stroke-width="2.60186" stroke-linecap="round" stroke-linejoin="round"/>
</g>
<path d="M141.152 112.242C140.736 107.4 133.745 104.767 128.862 103.581C123.98 102.396 118.201 101.604 118.12 104.237C118.048 106.875 127.012 108.613 127.012 108.613L141.148 112.242H141.152Z" fill="#E9B6A6"/>
<path d="M141.152 112.242C140.736 107.4 133.745 104.767 128.862 103.581C123.98 102.396 118.201 101.604 118.12 104.237C118.048 106.875 127.012 108.613 127.012 108.613L141.148 112.242H141.152Z" fill="#DD9D8B"/>
<path d="M141.143 112.246C141.143 104.608 124.106 106.979 124.898 107.115C124.898 107.115 94.8254 108.527 95.0924 111.301C95.3593 114.075 130.066 113.142 132.419 117.455L141.148 112.251L141.143 112.246Z" fill="#E9B6A6"/>
<path d="M173.863 131.885C170.361 139.351 166.614 145.215 166.614 145.215C163.266 135.17 141.129 112.251 141.129 112.251L132.401 117.455C132.401 117.455 158.256 168.546 166.61 169.668C171.877 170.37 181.479 160.256 186.786 150.849C184.334 143.243 180.845 135.591 173.854 131.885H173.863Z" fill="#E9B6A6"/>
<path d="M186.805 150.845C184.352 143.238 180.863 135.586 173.872 131.88C173.017 133.704 172.157 135.419 171.325 136.994C176.42 145.926 179.646 156.284 174.745 165.818C179.08 162.143 183.682 156.374 186.8 150.845H186.805Z" fill="#DD9D8B"/>
<path d="M200.981 97.7395H195.778C182.234 98.649 176.044 122.903 170.478 131.885C177.47 135.586 184.343 143.243 186.8 150.849C189.918 145.324 192.058 140.894 192.058 140.894L200.986 97.744L200.981 97.7395Z" fill="#2A4365"/>
<path d="M170.085 131.881C180.126 137.292 187.533 151.849 187.533 151.849L189.574 148.256C187.818 136.292 172.592 126.758 172.592 126.758L170.08 131.89H170.085V131.881Z" fill="#F5FDFF"/>
<path d="M232.833 38.6432C221.027 28.2991 237.615 9.70602 249.059 11.2943C249.059 11.2943 242.593 12.8283 240.982 15.2989C240.982 15.2989 249.213 8.2897 257.851 19.3759C266.489 30.4621 255.648 43.7836 248.104 44.0687C240.557 44.3538 232.828 38.6387 232.828 38.6387H232.833V38.6432Z" fill="#233859" stroke="#233859" stroke-width="0.561097" stroke-miterlimit="10"/>
<path d="M238.833 14.1631C230.48 19.5885 224.357 31.2313 232.819 38.6387C232.819 38.6387 240.552 44.3537 248.095 44.0687C252 43.9239 256.788 40.2767 259.304 35.254C246.539 42.2315 239.833 24.4665 238.842 14.1541H238.837L238.833 14.1631Z" fill="#233859" stroke="#233859" stroke-width="0.561097" stroke-miterlimit="10"/>
<path d="M237.498 15.8872C236.471 15.2311 235.14 15.3759 234.226 16.1813C227.081 22.4891 222.973 32.9735 230.941 39.8288H230.932C230.932 39.8288 239.118 45.7656 247.05 45.3946C247.05 45.3946 247.055 45.3946 247.059 45.3946C247.711 45.3629 248.272 44.9149 248.489 44.2995C250.973 37.2768 244.131 20.1181 237.498 15.8872Z" fill="#EF515B"/>
<path d="M225.778 32.0459L226.584 31.1318C227.185 31.4576 227.036 32.0595 227.036 32.0595L225.783 32.0459H225.778Z" fill="black"/>
<path d="M222.145 34.2811L223.172 33.625C223.66 34.1046 223.348 34.6386 223.348 34.6386L222.14 34.2811H222.145Z" fill="black"/>
<path d="M188.52 16.8509C175.067 16.2672 170.103 46.3176 186.329 55.1322L190.85 27.0728L188.52 16.8509Z" fill="#2A4365"/>
<path d="M181.085 34.6208C179.936 37.2317 180.506 40.4942 181.085 43.1006C176.809 37.019 175.999 29.1229 179.619 22.1318C173.325 29.9057 173.759 48.3722 186.058 55.2863L187.117 46.4807C183.56 44.2182 181.09 39.2272 181.09 34.6162H181.085V34.6208Z" fill="#2A4365"/>
<path d="M267.915 136.378C264.2 126.075 257.711 104.337 251.969 101.473C251.969 101.473 237.833 101.473 234.489 120.808C232.38 132.989 240.163 142.003 240.163 142.003L248.068 153.759C251.955 145.777 259.611 139.958 267.924 136.378H267.919H267.915Z" fill="#2A4365"/>
<path d="M236.231 114.26C235.493 116.152 234.882 118.31 234.453 120.803C232.344 132.985 240.127 141.998 240.127 141.998L248.032 153.754C250.34 149.012 253.987 145.039 258.304 141.84C246.706 137.329 237.389 127.224 236.226 114.26H236.231Z" fill="#233859"/>
<path d="M230.864 92.2822C238.177 97.7393 251.946 101.468 251.946 101.468C234.086 107.78 236.235 127.5 243.208 137.541C243.208 137.541 226.656 159.121 228.511 178.456C230.366 197.8 240.14 204.126 240.14 204.126C210.285 227.561 179.411 217.144 170.478 204.126C174.569 189.99 187.886 163.139 183.456 155.175C179.035 147.211 176.058 134.935 178.664 129.731C181.271 124.527 196.149 102.577 195.778 97.7439L205.57 96.2597L230.869 92.2958H230.864V92.2822Z" fill="#2A4365"/>
<path d="M182.972 154.275C183.13 154.578 183.289 154.876 183.456 155.171C187.877 163.135 174.569 189.986 170.478 204.122C179.406 217.14 210.28 227.557 240.14 204.122C240.14 204.122 230.371 197.796 228.511 178.452C226.656 159.107 243.208 137.537 243.208 137.537C240.245 133.265 238.163 127.251 238.109 121.256C234.023 128.297 232 137.256 228.747 144.98C220.642 165.682 200.438 163.076 182.985 154.27H182.981L182.972 154.275Z" fill="#233859"/>
<path d="M233.312 60.5352C228.715 71.8521 231.575 92.2779 231.575 92.2779C227.855 98.2327 215.76 101.206 212.511 101.455C209.262 101.699 206.285 96.2508 206.285 96.2508C211.986 92.0335 212.511 78.1464 212.511 78.1464L233.312 60.5397V60.5352Z" fill="#E9B6A6"/>
<path d="M230.964 71.8295C231.303 67.7796 232 63.7841 233.317 60.5352L212.515 78.1418C212.515 78.1418 212.113 88.857 208.144 94.3231C218.497 91.1466 225.855 81.3048 230.964 71.8295Z" fill="#E18E76"/>
<path d="M194.239 24.462C183.809 30.435 184.438 41.0189 185.361 50.2906C185.8 54.6617 186.7 64.5126 191.501 72.4177C196.891 81.2912 203.502 84.0831 207.099 83.9428C208.905 84.0559 215.344 82.0921 222.145 76.6486C226.05 73.5263 229.955 68.9742 231.751 65.3226C234.756 65.6121 240.285 61.5487 239.783 53.1232C239.38 46.4579 234.267 47.734 234.267 47.734C234.267 47.734 233.982 32.331 226.271 25.1227C218.565 17.9189 204.257 18.7289 194.244 24.4666L194.239 24.462Z" fill="#E9B6A6"/>
<path d="M242.471 29.5437C240.38 21.3218 235.52 15.8647 231.059 12.3488C222.878 5.90522 196.764 0.298776 188.144 16.9507L190.42 27.3265C214.479 11.7017 196.207 47.3585 224.298 49.7206C227.688 50.345 227.633 60.5352 227.633 60.5352C227.633 60.5352 233.656 54.2953 233.887 48.7386C241.009 49.5396 239.475 59.7524 233.104 64.1824C229.226 66.8793 229.62 71.9291 230.819 74.1056C241.294 70.816 250.616 51.2817 242.48 29.5437H242.475H242.471Z" fill="#2A4365"/>
<path d="M242.122 27.4983C241.991 26.9734 242.281 27.2584 242.122 26.7562C242.335 29.72 242.018 34.1409 241.394 37.2632C240.697 41.4352 237.919 44.2135 233.747 42.132C232.353 41.4352 231.665 39.3537 230.968 37.96C230.968 40.7383 229.661 44.9013 223.674 46.5348C217.678 48.1593 209.429 37.503 205.371 25.6883C203.389 19.9054 194.37 18.1632 190.366 27.7698C214.027 11.4708 196.832 47.6978 224.244 49.8471C227.633 50.4716 227.579 60.6618 227.579 60.6618C227.579 60.6618 233.602 54.4219 233.833 48.8652C240.955 49.6661 239.421 59.879 233.05 64.3089C229.172 67.0058 229.638 71.938 230.837 74.11C241.312 70.8204 251.104 51.4037 242.969 29.6657L242.122 27.4983Z" fill="#233859" stroke="#233859" stroke-width="0.561097" stroke-miterlimit="10"/>
<path d="M232.511 66.4675C233.489 66.4675 234.281 65.6756 234.281 64.6982C234.281 63.7208 233.489 62.929 232.511 62.929C231.534 62.929 230.742 63.7208 230.742 64.6982C230.742 65.6756 231.534 66.4675 232.511 66.4675Z" fill="#EF515B"/>
<path d="M231.43 90.8843C231.43 90.8843 224.864 99.2736 211.945 101.441C211.945 101.441 214.307 111.753 218.986 111.753C223.665 111.753 235.606 96.6491 235.606 94.3278C235.606 92.0065 231.421 90.8843 231.421 90.8843H231.43Z" fill="#F5FDFF"/>
<path d="M213.941 103.151C213.941 103.151 215.52 110.419 219.602 110.419C223.683 110.419 234.1 97.2418 234.1 95.2146" stroke="#2A4365" stroke-width="0.361998" stroke-linecap="round" stroke-linejoin="round"/>
<path d="M211.941 101.441C211.941 101.441 206.638 110.631 203.149 108.518C199.049 106.029 203.203 96.7034 204.045 94.3278C204.882 91.9522 210 90.8843 210 90.8843C210 90.8843 208.755 93.9884 207.348 95.3142C207.058 98.3641 211.945 101.441 211.945 101.441H211.941Z" fill="#F5FDFF"/>
<path d="M210.561 101.477C210.561 101.477 206.642 108.265 204.067 106.703C201.04 104.866 204.108 97.9748 204.728 96.2236" stroke="#2A4365" stroke-width="0.361998" stroke-linecap="round" stroke-linejoin="round"/>
<path d="M192.067 24.7697C182.863 23.0593 185.167 38.2904 185.167 38.2904C185.167 38.2904 185.51 31.9418 190.452 27.711L192.067 24.7697Z" fill="#233859" stroke="#233859" stroke-width="0.561097" stroke-miterlimit="10"/>
<path d="M191.759 20.2764C200.71 14.0908 207.968 17.2537 215.095 24.2222C221.145 30.0187 227.371 37.4261 236.647 34.1229C227.457 38.6252 220.262 31.0459 214.181 25.1906C207.185 18.3352 201.045 15.3578 191.759 20.2719V20.2764Z" fill="#233859" stroke="#233859" stroke-width="0.561097" stroke-miterlimit="10"/>
<path d="M208.583 115.645V120.971" stroke="#2A4365" stroke-width="0.280548" stroke-miterlimit="10"/>
<path opacity="0.2" d="M193.013 105.061C187.424 121.998 176.008 123.722 177.904 138.193L176.886 137.12L176.012 136.274L174.886 135.256C174.583 128.048 191.587 113.482 193.008 105.061H193.013Z" fill="#05101F"/>
<path d="M277.811 167.184C277.526 163.904 271.969 150.989 266.928 137.437C258.313 140.184 253.761 143.776 249.109 151.342L257.801 167.261C252.774 171.994 234.326 196.461 224.918 201.882L231.353 211.71C231.353 211.71 278.775 178.302 277.811 167.18V167.184Z" fill="#E9B6A6"/>
<path d="M249.969 156.451C252.068 148.682 270.336 139.433 270.336 139.433L267.797 133.478C255.254 137.573 247.389 153.017 247.389 153.017L249.973 156.456H249.969V156.451Z" fill="#F5FDFF"/>
<path d="M184.221 46.0416C185.773 42.4488 192.646 42.8018 192.646 42.8018" stroke="#1B4268" stroke-linecap="round" stroke-linejoin="round"/>
<path d="M203.791 41.8197C210.086 38.1319 219.869 44.3492 219.869 44.3492" stroke="#1B4268" stroke-linecap="round" stroke-linejoin="round"/>
<path d="M191.895 53.7341C192.072 54.9649 191.52 56.0554 190.66 56.1821C189.8 56.3042 188.958 55.4173 188.777 54.1866C188.596 52.9558 189.153 51.8652 190.013 51.7385C190.873 51.6164 191.714 52.5033 191.895 53.7341Z" fill="#1B4268" stroke="#2B4365" stroke-width="0.561097" stroke-miterlimit="10"/>
<path d="M212.429 51.5079C212.61 52.7478 212.049 53.8564 211.181 53.9876C210.312 54.1143 209.461 53.2138 209.276 51.9695C209.095 50.7296 209.656 49.621 210.524 49.4943C211.393 49.3676 212.244 50.2681 212.429 51.5124V51.5079Z" fill="#1B4268" stroke="#2B4365" stroke-width="0.561097" stroke-miterlimit="10"/>
<g opacity="0.3">
<path d="M177.922 55.7206C178.171 58.0103 179.252 60.0012 180.827 61.4492L184.397 46.001C180.252 47.2272 177.442 51.2726 177.927 55.7251L177.922 55.7206Z" fill="#C6E9FB"/>
<path d="M196.063 53.7568C195.814 51.4582 194.723 49.4581 193.14 48.0146L189.565 63.4855C193.723 62.2683 196.542 58.2185 196.058 53.7568H196.063Z" fill="#C6E9FB"/>
<path d="M190.185 46.2L186.117 63.8202C186.587 63.8655 187.072 63.8609 187.56 63.8338L191.492 46.8108C191.076 46.5755 190.642 46.3719 190.189 46.2H190.185Z" fill="#C6E9FB"/>
</g>
<path d="M196.126 54.4083C196.302 59.4084 192.397 63.5985 187.406 63.7795C182.411 63.9605 178.216 60.0509 178.035 55.0599C177.854 50.0688 181.764 45.8697 186.755 45.6887C191.755 45.5077 195.945 49.4172 196.126 54.4083Z" stroke="#233859" stroke-width="0.86427" stroke-linecap="round" stroke-linejoin="round"/>
<g opacity="0.3">
<path d="M202.294 53.4445C202.542 55.7341 203.624 57.7251 205.199 59.1731L208.769 43.7249C204.624 44.9511 201.814 48.9965 202.298 53.449L202.294 53.4445Z" fill="#C6E9FB"/>
<path d="M220.434 51.4761C220.185 49.1774 219.095 47.1774 217.511 45.7339L213.936 61.2048C218.095 59.9876 220.914 55.9377 220.43 51.4761H220.434Z" fill="#C6E9FB"/>
<path d="M214.556 43.9241L210.488 61.5443C210.959 61.5896 211.443 61.585 211.932 61.5579L215.864 44.5349C215.448 44.2996 215.013 44.096 214.561 43.9241H214.556Z" fill="#C6E9FB"/>
</g>
<path d="M220.52 52.0418C220.701 57.0329 216.792 61.2321 211.801 61.4131C206.805 61.5941 202.61 57.6845 202.429 52.6934C202.253 47.6979 206.158 43.5032 211.149 43.3222C216.149 43.1412 220.339 47.0508 220.52 52.0418Z" stroke="#233859" stroke-width="0.86427" stroke-linecap="round" stroke-linejoin="round"/>
<path d="M195.945 52.9151C198.655 51.4716 202.438 52.0508 202.438 52.0508" stroke="#233859" stroke-width="0.86427" stroke-linecap="round" stroke-linejoin="round"/>
<path d="M220.172 49.7838L233.81 48.1187" stroke="#233859" stroke-width="0.86427" stroke-linecap="round" stroke-linejoin="round"/>
<path d="M178.352 57.1368L185.42 55.1187" stroke="#233859" stroke-width="0.86427" stroke-linecap="round" stroke-linejoin="round"/>
<path d="M198.927 57.9468C199.416 59.1278 194.492 61.5125 198.999 62.9378" stroke="#1B4268" stroke-linecap="round" stroke-linejoin="round"/>
<g opacity="0.6">
<path d="M202.239 73.7887C204.09 74.4177 205.8 73.1914 205.8 73.1914C204.719 75.5534 202.239 73.7887 202.239 73.7887Z" fill="#E9B6A6"/>
</g>
<path d="M200.017 70.644C203.045 71.5399 205.85 71.015 208.348 68.5037" stroke="#4A2B5F" stroke-width="0.561097" stroke-linecap="round" stroke-linejoin="round"/>
<path d="M201.859 69.8974C202.036 69.6078 202.285 69.5309 202.511 69.5942C202.9 69.7028 203.294 69.5309 203.552 69.2232C204.122 68.549 204.936 68.6983 205.624 69.7164C205.674 69.7933 205.719 69.8748 205.746 69.9608C205.755 69.9834 205.76 70.006 205.764 70.0286C206.298 71.9065 204.036 73.3545 202.475 72.1825C201.723 71.6169 201.253 70.8386 201.85 69.9019L201.859 69.8974Z" stroke="#4A2B5F" stroke-width="0.561097" stroke-linejoin="round"/>
<path d="M232.661 56.2681L232.887 59.0509" stroke="#233859" stroke-width="0.86427" stroke-linecap="round" stroke-linejoin="round"/>
<path d="M235.113 57.8247L232.887 57.4355" stroke="#233859" stroke-width="0.86427" stroke-linecap="round" stroke-linejoin="round"/>
<path opacity="0.4" d="M180.402 128.378C186.714 131.573 193.791 133.251 200.864 133.242C204.185 133.238 207.515 132.867 210.819 133.206C217.538 133.894 223.593 137.441 230.086 139.288" stroke="#F5FDFF" stroke-width="0.361998" stroke-miterlimit="10"/>
<path opacity="0.4" d="M178.175 134.401C180.189 135.885 182.619 136.677 185.026 137.36C187.777 138.143 190.574 138.813 193.425 139.098C198.696 139.632 204.085 138.84 209.28 139.872C216.099 141.225 222.041 145.6 228.873 146.876" stroke="#F5FDFF" stroke-width="0.361998" stroke-miterlimit="10"/>
<path opacity="0.4" d="M179.32 143.215C183.452 144.428 187.655 145.514 191.954 145.781C195.447 145.998 198.972 145.672 202.438 146.166C209.099 147.111 215.113 151.012 221.814 151.609" stroke="#F5FDFF" stroke-width="0.361998" stroke-miterlimit="10"/>
<path d="M211.85 102.323L205.932 125.134" stroke="#F5FDFF" stroke-width="0.361998" stroke-linecap="round" stroke-linejoin="round"/>
<path d="M210.896 110.649C210.647 111.726 209.9 112.482 209.23 112.328C208.561 112.174 208.217 111.174 208.466 110.088C208.714 109.002 209.461 108.255 210.131 108.409C210.8 108.563 211.144 109.568 210.896 110.649Z" fill="#F5FDFF"/>
<path d="M208.303 121.278C208.054 122.355 207.307 123.111 206.638 122.957C205.968 122.803 205.624 121.803 205.873 120.717C206.122 119.631 206.868 118.885 207.538 119.039C208.208 119.192 208.552 120.197 208.303 121.278Z" fill="#F5FDFF"/>
<path d="M209.981 109.599C209.778 110.165 209.615 110.749 209.484 111.337" stroke="#2A4365" stroke-width="0.289598" stroke-linecap="round" stroke-linejoin="round"/>
<path d="M209.235 110.188C209.601 110.355 209.977 110.5 210.38 110.613" stroke="#2A4365" stroke-width="0.289598" stroke-linecap="round" stroke-linejoin="round"/>
<path d="M207.33 120.147C207.126 120.713 206.963 121.297 206.832 121.885" stroke="#2A4365" stroke-width="0.289598" stroke-linecap="round" stroke-linejoin="round"/>
<path d="M206.579 120.758C206.945 120.925 207.321 121.07 207.724 121.183" stroke="#2A4365" stroke-width="0.289598" stroke-linecap="round" stroke-linejoin="round"/>
<path d="M146.46 41.9509H52.6798C51.0454 41.9509 49.7204 43.2759 49.7204 44.9103V83.6712C49.7204 85.3056 51.0454 86.6305 52.6798 86.6305H146.46C148.094 86.6305 149.419 85.3056 149.419 83.6712V44.9103C149.419 43.2759 148.094 41.9509 146.46 41.9509Z" fill="white"/>
<path d="M99.6354 50.6526L103.174 57.8247C103.301 58.0781 103.54 58.2545 103.821 58.2953L111.735 59.4446C112.441 59.5487 112.722 60.413 112.21 60.9107L106.482 66.4945C106.278 66.6936 106.188 66.9742 106.233 67.2547L107.586 75.1372C107.708 75.8386 106.97 76.3725 106.341 76.0422L99.2599 72.3182C99.011 72.1869 98.7123 72.1869 98.4589 72.3182L91.3773 76.0422C90.7484 76.3725 90.0108 75.8386 90.133 75.1372L91.4859 67.2547C91.5357 66.9742 91.4407 66.6936 91.2371 66.4945L85.5085 60.9107C84.9971 60.413 85.2822 59.5487 85.9836 59.4446L93.8978 58.2953C94.1783 58.2545 94.4181 58.0781 94.5448 57.8247L98.0834 50.6526C98.4001 50.0146 99.3096 50.0146 99.6219 50.6526H99.6354Z" fill="#E9C758"/>
<path d="M132.175 56.7071L133.867 63.0013C133.939 63.2728 134.143 63.4946 134.41 63.5896L140.555 65.7616C141.224 65.9969 141.333 66.9019 140.736 67.291L135.27 70.8476C135.034 71.0015 134.885 71.2639 134.88 71.5445L134.713 78.0604C134.695 78.7709 133.867 79.1555 133.315 78.7075L128.242 74.6079C128.021 74.4314 127.731 74.3726 127.459 74.454L121.211 76.3093C120.527 76.5129 119.912 75.8432 120.165 75.178L122.496 69.0874C122.595 68.825 122.563 68.5263 122.401 68.2955L118.704 62.9244C118.301 62.3362 118.744 61.5443 119.455 61.5805L125.966 61.9153C126.247 61.9289 126.518 61.8067 126.69 61.5805L130.659 56.4084C131.093 55.8428 131.984 56.0193 132.17 56.7071H132.175Z" fill="#E9C758"/>
<path d="M67.4131 56.7071L65.7207 63.0013C65.6483 63.2728 65.4447 63.4946 65.1777 63.5896L59.0328 65.7616C58.3631 65.9969 58.2545 66.9019 58.8518 67.291L64.318 70.8476C64.5533 71.0015 64.7026 71.2639 64.7071 71.5445L64.8746 78.0604C64.8927 78.7709 65.7207 79.1555 66.2728 78.7075L71.3453 74.6079C71.567 74.4314 71.8566 74.3726 72.1281 74.454L78.3771 76.3093C79.0604 76.5129 79.6758 75.8432 79.4224 75.178L77.092 69.0874C76.9925 68.825 77.0241 68.5263 77.187 68.2955L80.8839 62.9244C81.2867 62.3362 80.8432 61.5443 80.1328 61.5805L73.6213 61.9153C73.3408 61.9289 73.0693 61.8067 72.8974 61.5805L68.929 56.4084C68.4946 55.8428 67.6031 56.0193 67.4176 56.7071H67.4131Z" fill="#E9C758"/>
<path d="M23.3851 64.3857C27.4261 64.3857 30.702 61.1098 30.702 57.0688C30.702 53.0278 27.4261 49.752 23.3851 49.752C19.3441 49.752 16.0682 53.0278 16.0682 57.0688C16.0682 61.1098 19.3441 64.3857 23.3851 64.3857Z" fill="white"/>
<path opacity="0.3" d="M23.3851 57.8789C25.0595 57.8789 26.4168 56.5215 26.4168 54.8472C26.4168 53.1728 25.0595 51.8154 23.3851 51.8154C21.7107 51.8154 20.3533 53.1728 20.3533 54.8472C20.3533 56.5215 21.7107 57.8789 23.3851 57.8789Z" fill="#3182CF"/>
<path opacity="0.3" d="M23.3851 69.9017C26.6064 69.9017 29.2178 67.2903 29.2178 64.069C29.2178 60.8477 26.6064 58.2363 23.3851 58.2363C20.1638 58.2363 17.5524 60.8477 17.5524 64.069C17.5524 67.2903 20.1638 69.9017 23.3851 69.9017Z" fill="#3182CF"/>
<path d="M16.2447 72.282H39.2361" stroke="white" stroke-width="1.35749" stroke-linecap="round" stroke-linejoin="round"/>
<path d="M16.3216 77.1282H39.313" stroke="white" stroke-width="1.35749" stroke-linecap="round" stroke-linejoin="round"/>
<path d="M16.3216 81.9021H33.0278" stroke="white" stroke-width="1.35749" stroke-linecap="round" stroke-linejoin="round"/>
</g>
</g>
<defs>
<clipPath id="clip0_265_14162">
<rect width="299" height="187" fill="white"/>
</clipPath>
</defs>
</svg>
