<svg width="266" height="165" viewBox="0 0 266 165" fill="none" xmlns="http://www.w3.org/2000/svg">
<g clip-path="url(#clip0_265_14087)">
<mask id="mask0_265_14087" style="mask-type:luminance" maskUnits="userSpaceOnUse" x="0" y="0" width="266" height="165">
<path d="M265.4 0H0V164.355H265.4V0Z" fill="white"/>
</mask>
<g mask="url(#mask0_265_14087)">
<path d="M165.682 52.8464L167.743 57.909C167.815 58.0876 167.97 58.2179 168.163 58.2613L173.501 59.4341C173.974 59.5403 174.123 60.1435 173.752 60.4572L169.572 63.9852C169.422 64.1106 169.345 64.2989 169.365 64.4919L169.9 69.931C169.949 70.4136 169.418 70.7418 169.007 70.486L164.365 67.6048C164.201 67.5034 163.998 67.489 163.819 67.5662L158.81 69.7572C158.366 69.9503 157.888 69.5497 158.004 69.0816L159.312 63.7728C159.36 63.5846 159.312 63.3867 159.181 63.2419L155.547 59.1542C155.224 58.7922 155.46 58.2131 155.943 58.1793L161.397 57.7835C161.59 57.7691 161.763 57.6629 161.86 57.494L164.625 52.7788C164.871 52.3589 165.489 52.4024 165.677 52.856L165.682 52.8464Z" fill="#FBCE50"/>
<path d="M190.339 59.796L191.184 64.1734C191.222 64.3616 191.348 64.5209 191.526 64.5981L195.609 66.3789C196.053 66.572 196.082 67.1946 195.658 67.431L191.758 69.5883C191.589 69.68 191.478 69.8538 191.459 70.0468L191.024 74.4821C190.976 74.9647 190.397 75.1867 190.04 74.8537L186.782 71.8132C186.642 71.6829 186.444 71.6298 186.256 71.6684L181.903 72.6288C181.43 72.735 181.039 72.2475 181.247 71.8084L183.134 67.7689C183.216 67.5951 183.206 67.3876 183.109 67.2235L180.851 63.3819C180.605 62.962 180.947 62.4408 181.43 62.5035L185.851 63.0489C186.044 63.073 186.232 63.0006 186.362 62.8558L189.321 59.521C189.644 59.159 190.243 59.3231 190.334 59.8009L190.339 59.796Z" fill="#FBCE50"/>
<path d="M138.622 58.9757L137.16 63.1842C137.097 63.3675 136.947 63.5075 136.759 63.5558L132.464 64.7382C131.996 64.8685 131.875 65.4766 132.266 65.771L135.818 68.464C135.972 68.5798 136.059 68.7632 136.05 68.9562L135.847 73.406C135.823 73.8934 136.368 74.1926 136.769 73.9127L140.427 71.3693C140.586 71.2583 140.789 71.2342 140.967 71.3018L145.137 72.8703C145.591 73.044 146.045 72.6145 145.905 72.1512L144.616 67.8848C144.558 67.7014 144.597 67.4987 144.717 67.3491L147.497 63.8695C147.801 63.4882 147.536 62.9284 147.048 62.9187L142.594 62.827C142.401 62.827 142.222 62.7257 142.116 62.5616L139.664 58.8406C139.399 58.4352 138.781 58.5124 138.622 58.9709V58.9757Z" fill="#FBCE50"/>
<path d="M161.459 81.6007L163.037 71.4657C163.105 71.041 163.501 70.7515 163.925 70.8142L164.925 70.9686C165.397 71.041 165.697 71.5237 165.547 71.9773L162.425 81.6007H161.464H161.459Z" fill="#FBCE50"/>
<path d="M184.958 75.2735C185.431 75.3652 185.711 75.8574 185.542 76.3063L183.597 81.6006H182.887L184.051 75.8816C184.137 75.4617 184.543 75.1914 184.958 75.2735Z" fill="#FBCE50"/>
<path d="M142.348 75.2735C141.875 75.3652 141.595 75.8574 141.764 76.3063L143.709 81.6006H144.418L143.255 75.8816C143.168 75.4617 142.763 75.1914 142.348 75.2735Z" fill="#FBCE50"/>
<path d="M50.0811 84.7038H51.8185C62.856 84.7038 71.8182 93.666 71.8182 104.703V160.938H34.7773C29.3286 160.938 24.903 156.512 24.903 151.064V109.877C24.903 95.9825 36.1866 84.699 50.0811 84.699V84.7038Z" fill="#2A4365"/>
<path d="M115.225 122.502C116.74 130.509 117.705 134.105 120.147 143.665L143.279 151.049C143.279 151.049 133.439 154.495 128.024 154.987C122.609 155.48 106.369 154.003 106.369 154.003L99.4769 132.348L107.845 119.554L115.229 122.507L115.225 122.502Z" fill="#E0ADA0"/>
<path opacity="0.4" d="M100.447 133.965L107.483 129.346V130.663C107.372 131.103 109.573 151.773 109.573 151.773L106.48 152.724V151.025" fill="#E18E76"/>
<path d="M237.592 147.381H185.33V156.155H237.592V147.381Z" fill="#EF515B"/>
<path d="M237.592 149.64H202.284V154.486H237.592V149.64Z" fill="#E7F8FE"/>
<path opacity="0.4" d="M199.62 149.64H188.848V154.486H199.62V149.64Z" fill="#233859"/>
<path d="M231.583 138.607H179.321V147.381H231.583V138.607Z" fill="#83B2CC"/>
<path d="M231.583 139.737H196.275V146.247H231.583V139.737Z" fill="#E7F8FE"/>
<path opacity="0.4" d="M193.853 139.737H179.321V146.247H193.853V139.737Z" fill="#233859"/>
<path d="M91.6006 90.0222C100.79 96.8513 107.599 103 114.732 118.072L103.661 127.179L102.918 134.91C101.75 142.985 101.016 146.527 100.36 145.977L95.0465 157.936C95.0465 157.936 44.7771 160.697 44.8495 158.921C44.9219 157.145 49.0338 124.225 49.0338 124.225C49.0338 124.225 22.9484 120.287 23.9329 119.303C24.4928 118.743 29.1597 108.743 41.2058 96.0308C50.0666 86.6825 76.4561 78.7676 91.6006 90.0222Z" fill="#2B6BB1"/>
<path opacity="0.2" d="M60.1437 107.363C59.3763 107.218 47.1371 122.073 47.1371 122.073L50.0328 123.95L60.1437 107.358V107.363Z" fill="#233859"/>
<path opacity="0.4" d="M60.4815 107.281C60.3657 107.208 60.216 107.247 60.1437 107.363L51.0367 122.372C50.9884 122.449 50.9932 122.546 51.0367 122.618C50.5782 122.874 49.4537 123.521 48.4788 124.139C48.8359 124.192 49.0338 124.225 49.0338 124.225C49.0338 124.225 44.9219 157.145 44.8495 158.921C44.8351 159.336 52.7017 160.325 56.9632 160.764L59.1398 160.856L56.2103 114.79L60.5635 107.614C60.6359 107.498 60.5973 107.348 60.4815 107.276V107.281Z" fill="#233859"/>
<path d="M63.5509 86.3208C63.5509 86.3208 79.7089 103.217 91.0649 101.576C91.3062 101.543 91.4124 101.248 91.2579 101.06L88.8979 98.1449" stroke="white" stroke-width="0.492269" stroke-miterlimit="10" stroke-linecap="round"/>
<path d="M23.6868 114.626L20.7332 120.041L51.2442 125.948C51.2442 125.948 51.7365 122.503 51.2442 122.503C50.7519 122.503 23.682 114.626 23.682 114.626H23.6868Z" fill="#F6F6F6"/>
<path d="M115.717 117.088L103.661 127.179L103.294 132.806L117.194 121.518L115.717 117.088Z" fill="#F6F6F6"/>
<path d="M174.379 154.635H87.3005V152.598C87.3005 151.792 87.952 151.141 88.758 151.141H174.379V154.635Z" fill="white"/>
<path d="M169.336 156.122H82.2571V154.085C82.2571 153.279 82.9087 152.627 83.7146 152.627H169.336V156.122Z" fill="#BCD5E2"/>
<path opacity="0.29" d="M169.336 156.122H82.2571V154.085C82.2571 153.279 82.9087 152.627 83.7146 152.627H169.336V156.122Z" fill="#233859"/>
<path d="M91.2 151.03V152.729" stroke="#BCD5E2" stroke-width="0.381267" stroke-miterlimit="10"/>
<path d="M96.2916 151.03V152.729" stroke="#BCD5E2" stroke-width="0.381267" stroke-miterlimit="10"/>
<path d="M101.383 151.03V152.729" stroke="#BCD5E2" stroke-width="0.381267" stroke-miterlimit="10"/>
<path d="M111.571 151.03V152.729" stroke="#BCD5E2" stroke-width="0.381267" stroke-miterlimit="10"/>
<path d="M112.035 156.049H191.377L207.81 81.7358H128.463L112.035 156.049Z" fill="#D0E6EF"/>
<path d="M113.053 156.049H192.395L208.828 81.7358H129.481L113.053 156.049Z" fill="#BCD5E2"/>
<g opacity="0.1">
<path d="M122.44 137.058L118.854 151.011L137.333 151.069" stroke="#2A4365" stroke-width="0.381267" stroke-miterlimit="10"/>
<path d="M179.345 154.553L189.408 154.655" stroke="#2A4365" stroke-width="0.381267" stroke-miterlimit="10"/>
<path d="M173.925 154.698L176.816 154.693" stroke="#2A4365" stroke-width="0.381267" stroke-miterlimit="10"/>
<path d="M177.714 86.3111L203.182 85.9878L198.225 105.616L193.713 125.123" stroke="#2A4365" stroke-width="0.381267" stroke-miterlimit="10"/>
</g>
<path opacity="0.17" d="M166.054 119.612C166.353 119.008 166.556 118.362 166.633 117.71C166.71 117.03 166.647 116.402 166.459 115.857" stroke="#2A4365" stroke-width="0.381267" stroke-linecap="round" stroke-linejoin="round"/>
<path opacity="0.17" d="M157.898 116.986C157.666 117.387 157.483 117.807 157.347 118.241C157.246 118.564 157.174 118.897 157.135 119.23C156.971 120.664 157.444 121.851 158.332 122.57C159.08 123.178 160.127 123.453 161.329 123.26C162.386 123.091 163.399 122.59 164.258 121.875" stroke="#2A4365" stroke-width="0.381267" stroke-linecap="round" stroke-linejoin="round"/>
<path opacity="0.17" d="M158.375 119.032C158.149 120.987 159.539 122.324 161.479 122.015C163.419 121.706 165.175 119.867 165.402 117.913C165.557 116.581 165.344 115.567 164.336 115.138C164.114 115.041 163.148 115.384 162.893 115.35C162.603 115.316 161.927 114.969 161.604 115.022C159.664 115.331 158.607 117.078 158.38 119.032H158.375Z" fill="#2A4365"/>
<g opacity="0.17">
<path d="M162.362 112.295C162.859 112.44 163.259 112.894 163.419 113.396C163.506 113.651 163.641 113.946 163.52 114.216C163.409 114.477 163.211 114.723 162.849 114.8C162.811 114.81 162.777 114.79 162.762 114.757C162.613 114.433 162.555 114.24 162.516 114.057C162.468 113.883 162.603 113.724 162.618 113.531C162.627 113.347 162.618 113.154 162.574 112.961C162.536 112.758 162.439 112.57 162.309 112.382C162.28 112.343 162.318 112.286 162.367 112.3L162.362 112.295Z" fill="#2A4365"/>
</g>
<path d="M250.073 156.097H15.3424V164.061H250.073V156.097Z" fill="#B5665E"/>
<path d="M81.4077 144.433C82.4888 144.022 84.4917 142.444 85.8575 141.778C86.6683 141.382 87.619 141.402 88.4105 141.831L94.7376 144.235L81.4029 144.433H81.4077Z" fill="#E0ADA0"/>
<path d="M88.1161 143.26L73.2708 144.983C72.5373 145.07 71.794 144.983 71.1039 144.722C61.5529 141.102 49.9074 134.795 44.8496 133.327L48.2954 125.451L26.1482 121.021C25.8779 121.793 13.354 147.598 21.7177 150.055C28.262 151.981 61.7942 154.809 71.2149 155.576C72.8413 155.706 74.4725 155.537 76.0362 155.074L90.896 150.668C92.3342 150.262 93.4008 149.056 94.8872 149.225L100.288 149.978L106.364 151.532H106.871C108.285 151.532 108.714 149.616 107.44 149.008L99.4624 145.229C95.9297 143.554 92.006 142.874 88.1161 143.25V143.26Z" fill="#E9B6A6"/>
<path opacity="0.4" d="M46.0223 124.814C45.9354 128.304 44.2221 131.185 39.7435 133.028L44.8447 133.332L48.223 125.446L46.0175 124.819L46.0223 124.814Z" fill="#E18E76"/>
<path opacity="0.4" d="M101.446 109.216L103.661 127.179L107.353 123.979L101.446 109.216Z" fill="#233859"/>
<path opacity="0.2" d="M64.965 122.063L77.4117 122.353C77.4117 122.353 77.1221 133.245 70.7033 135.287C64.2845 137.328 64.965 122.063 64.965 122.063Z" fill="#233859"/>
<path opacity="0.2" d="M65.0374 120.036L77.6144 120.432" stroke="#2A4365" stroke-width="0.974885" stroke-miterlimit="10"/>
<path d="M66.1957 72.9377L66.8472 86.0601C66.8472 86.0601 79.7668 98.6708 87.2956 96.1902L84.3227 77.4309L66.1908 72.9426L66.1957 72.9377Z" fill="#E9B6A6"/>
<path opacity="0.4" d="M66.3356 75.3027C71.4465 80.5922 80.7852 92.2908 87.0978 94.7376L84.6027 78.9513L66.0847 71.1377L66.3356 75.3027Z" fill="#233859"/>
<path d="M66.548 31.1577C58.3869 39.3236 58.9323 53.5222 58.9323 53.5222C58.9323 53.5222 53.2567 52.6535 53.3339 59.6176C53.4353 68.4254 60.0278 72.1657 63.411 71.601C99.4817 115.939 126.291 59.8396 102.788 27.6781C90.9828 22.5865 74.7042 22.9967 66.548 31.1529V31.1577Z" fill="#E9B6A6"/>
<path d="M59.2363 60.6116L59.7141 63.488" stroke="#1B4268" stroke-linecap="round" stroke-linejoin="round"/>
<path d="M68.3288 24.3238C68.3288 24.3238 54.7914 22.9001 53.942 38.0591C53.7538 41.3988 54.2654 44.7288 55.3464 47.9045C55.5877 48.6091 58.9033 52.277 58.9033 52.277C61.6446 52.61 64.5692 52.9526 66.9727 53.387C66.9727 53.387 67.103 49.3571 66.6011 47.446C66.6011 47.446 71.7409 46.3601 75.5488 42.9239C74.9021 43.947 74.2312 44.9991 73.5845 46.0271C79.1056 44.1111 79.5786 35.7763 79.5786 35.7763C79.5497 35.9452 79.4628 36.1769 79.3421 36.4568C79.5448 35.4336 79.622 34.3285 79.5303 33.1267C83.8063 37.0166 86.4221 39.0629 91.4992 40.9596C90.5823 39.9702 90.0369 39.3959 89.7087 38.9085C96.6632 42.0986 105.828 44.753 112.72 41.1478C135.369 29.2996 81.4367 9.32892 68.3288 24.3335V24.3238Z" fill="#935C58"/>
<path d="M62.1369 62.0161L59.5838 61.8086" stroke="#1B4268" stroke-linecap="round" stroke-linejoin="round"/>
<path d="M114.67 28.5903C113.135 27.2582 111.161 25.989 108.898 24.8355C108.898 24.8355 108.888 24.8355 108.883 24.8307C107.537 24.1454 106.089 23.5035 104.564 22.9099C104.535 22.9002 104.506 22.8906 104.482 22.8761C103.092 22.3356 101.634 21.8481 100.138 21.4041L103.623 20.6898C87.4791 17.3308 77.1173 18.8076 72.8027 21.0904C72.7544 21.1145 72.7062 21.1338 72.6579 21.1531C72.5469 21.2062 72.4359 21.2593 72.3249 21.3124C72.0112 21.4717 71.7023 21.6358 71.4031 21.8143C71.3597 21.8433 71.3114 21.8626 71.2631 21.8915C70.9253 22.0942 70.6068 22.3114 70.2931 22.5383C70.2062 22.601 70.1242 22.6686 70.0373 22.7313C69.8056 22.9099 69.5836 23.0933 69.3665 23.2815C69.2844 23.3539 69.1975 23.4311 69.1155 23.5035C69.0672 23.5469 69.0286 23.5952 68.9804 23.6434L69.7332 19.9852C69.7912 19.7101 69.6126 19.4399 69.3327 19.3819C69.0528 19.324 68.7873 19.5026 68.7294 19.7825L67.9717 23.4794L65.1725 21.6309C64.936 21.4765 64.6175 21.5392 64.4631 21.7757C64.3086 22.0122 64.3714 22.3307 64.6079 22.4852L67.3395 24.2902C65.8337 24.2998 62.8318 24.5508 60.0375 26.2399C52.5714 30.5111 51.5096 41.2252 53.0685 47.5667L54.5646 45.1344C54.6273 45.4143 54.6901 45.6894 54.7625 45.9693C54.7625 45.9838 54.7721 45.9982 54.7721 46.0127C54.999 46.8718 55.1341 47.8032 55.6891 48.5127C58.4641 48.2858 61.9197 49.8495 63.8791 51.3312C63.8791 51.3312 63.7102 44.56 63.2083 42.6489C63.2083 42.6489 75.5343 42.4896 79.3084 36.6065C79.8151 35.1828 79.6558 34.9656 79.5111 33.1172C79.5111 33.1172 79.6896 33.2427 80.0226 33.4695C80.0178 33.3392 80.0226 33.2137 80.013 33.0786C80.013 33.0786 96.6053 42.9964 109.327 36.3411C113.864 33.9666 115.321 31.2688 114.655 28.5903H114.67Z" fill="#A06B64"/>
<path d="M94.9692 51.4419C94.9692 51.4419 99.612 66.9484 98.0483 68.0777C96.2144 69.4049 93.7965 68.541 93.7965 68.541" stroke="#1B4268" stroke-linecap="round" stroke-linejoin="round"/>
<path d="M86.1543 62.7705C87.2173 62.6887 87.9607 61.0841 87.8147 59.1866C87.6687 57.2891 86.6886 55.8172 85.6256 55.899C84.5626 55.9808 83.8192 57.5853 83.9652 59.4828C84.1112 61.3803 85.0913 62.8523 86.1543 62.7705Z" fill="#2A4365"/>
<path d="M103.979 61.2819C105.042 61.2001 105.786 59.5956 105.64 57.6981C105.494 55.8006 104.514 54.3287 103.451 54.4105C102.388 54.4923 101.644 56.0968 101.79 57.9943C101.936 59.8918 102.916 61.3637 103.979 61.2819Z" fill="#2A4365"/>
<path d="M80.1674 53.6283C81.5091 51.5434 84.3276 50.858 86.9578 51.4275" stroke="#1B4268" stroke-linecap="round" stroke-linejoin="round"/>
<path d="M107.845 51.0414C106.176 49.3329 103.55 49.3233 101.393 50.4816" stroke="#1B4268" stroke-linecap="round" stroke-linejoin="round"/>
<path d="M82.817 74.2891C82.9135 74.9937 86.2532 78.0824 88.5408 77.7301" stroke="#1B4268" stroke-linecap="round" stroke-linejoin="round"/>
<path d="M59.1832 53.1167L66.6783 54.3377" stroke="#A37A72" stroke-width="0.622575" stroke-linecap="round" stroke-linejoin="round"/>
<path d="M61.2151 54.7432L66.7796 55.6408" stroke="#A37A72" stroke-width="0.622575" stroke-linecap="round" stroke-linejoin="round"/>
</g>
</g>
<defs>
<clipPath id="clip0_265_14087">
<rect width="265.4" height="164.355" fill="white"/>
</clipPath>
</defs>
</svg>
