<svg width="262" height="261" viewBox="0 0 262 261" fill="none" xmlns="http://www.w3.org/2000/svg">
<path d="M35.2813 95.9859C44.2289 91.19 53.2044 86.4285 62.1519 81.6326C63.357 80.9857 64.6239 80.3241 66.0924 80.3197C67.986 80.3086 69.8172 81.3842 71.5047 82.4134C80.6455 87.9934 89.814 93.4792 99.0442 98.9045C120.297 111.4 141.552 123.891 162.806 136.386C172.342 141.993 181.878 147.599 191.414 153.206C197.651 156.871 204.003 160.263 210.265 163.86C213.447 165.688 216.52 168.159 217.809 171.355C218.882 174.013 218.577 176.802 218.187 179.445C216.07 193.674 211.831 207.379 205.629 220.088C200.307 230.987 191.487 240.003 177.651 241.418C172.497 241.943 167.082 241.36 162.03 242.233C146.515 244.914 137.23 260.655 121.102 260.815C113.674 260.893 106.172 257.497 99.6877 253.244C93.6269 249.273 88.054 244.392 84.2039 238.54C80.1833 232.429 78.2176 225.576 75.7796 218.931C70.8916 205.615 63.3793 192.164 51.0771 183.316C43.253 177.689 34.0035 174.292 25.9113 169.038C17.0791 163.302 9.7623 155.348 5.12609 146.444C2.15842 140.744 0.258495 134.496 0.937735 128.611C2.42237 115.753 13.5085 107.761 24.4198 101.844C28.0349 99.8853 31.6561 97.9345 35.2833 95.9917L35.2813 95.9859Z" fill="#77B5E1"/>
<path d="M204.356 220.637C192.048 223.648 179.723 226.611 167.415 229.623C165.757 230.03 164.022 230.435 162.34 230.01C160.169 229.468 158.539 227.667 157.054 225.962C149.008 216.725 140.891 207.59 132.677 198.508C113.764 177.593 94.8477 156.681 75.9351 135.766C67.4492 126.382 58.9634 116.997 50.4775 107.613C44.9263 101.477 39.1258 95.6274 33.5177 89.5651C30.6671 86.4834 28.2196 82.6791 28.1257 78.5456C28.0479 75.1077 29.6012 71.9196 31.1901 68.9283C39.7606 52.8288 50.5327 37.9681 63.1198 24.853C73.9177 13.6072 87.9038 5.5989 104.342 7.99342C110.465 8.88804 116.408 11.1616 122.563 11.617C141.47 13.0163 158.894 -2.75681 177.413 1.78476C185.944 3.87148 193.058 10.0622 198.638 16.961C203.855 23.4048 208.121 30.7744 209.996 38.7799C211.955 47.1395 211.242 55.7694 211.159 64.2927C210.996 81.3726 213.777 99.3818 224.026 113.387C230.545 122.293 239.658 128.997 246.644 137.544C254.269 146.875 259.202 158.367 260.657 170.19C261.589 177.758 261.062 185.656 257.742 192.372C250.487 207.045 234.352 213.186 219.313 216.938C214.331 218.18 209.345 219.41 204.357 220.63L204.356 220.637Z" fill="#BEE3F8"/>
</svg>
