<svg width="294" height="290" viewBox="0 0 294 290" fill="none" xmlns="http://www.w3.org/2000/svg">
<path d="M245.817 79.5208C243.937 79.125 241.301 79.5812 238.716 80.06L60.2011 183.125C60.0452 183.482 59.9017 183.851 59.8011 184.247C59.1371 186.716 59.6854 189.564 60.3061 192.266C63.3306 205.323 68.4029 218.354 76.3678 229.409C84.3327 240.465 95.3802 249.416 107.296 252.68C113.375 254.343 119.553 254.532 125.578 256.655C144.079 263.168 157.73 286.458 176.478 289.631C185.113 291.092 193.196 287.802 199.951 283.155C206.26 278.811 211.836 273.142 215.234 265.812C218.785 258.161 219.813 249.12 221.429 240.454C224.671 223.084 230.926 206.002 243.588 196.118C251.641 189.831 261.753 186.865 270.187 181.132C279.392 174.875 286.425 165.304 290.175 153.937C292.575 146.658 293.64 138.44 291.776 130.237C289.016 118.106 280.345 107.725 271.296 99.1598C265.055 93.2499 253.66 81.1724 245.817 79.5208Z" fill="#7EC0EE"/>
<path d="M28.0036 189.416C29.9144 190.589 33.0882 191.21 36.2162 191.786L286.536 160.597C286.885 160.299 287.226 159.984 287.533 159.624C289.487 157.393 290.269 154.279 290.9 151.284C293.916 136.801 294.628 121.503 291.134 107.021C287.64 92.5378 279.664 78.9231 267.927 70.7187C261.94 66.5354 255.118 63.8059 249.415 59.1784C231.903 44.9746 228.043 15.7494 208.616 4.83089C199.669 -0.1974 189.008 -0.182011 179.17 1.75597C169.98 3.5699 160.96 7.02843 153.564 13.0651C145.838 19.3658 140.256 28.1118 134.198 36.2358C122.053 52.5186 106.679 67.2716 87.6624 72.0933C75.5662 75.161 62.795 74.0151 50.5459 76.365C37.1759 78.9288 24.6126 85.7455 14.843 95.7316C8.5877 102.128 3.36688 110.024 1.43105 119.108C-1.42735 132.543 3.18827 146.632 9.11602 159.035C13.2038 167.591 20.0356 184.519 28.0036 189.416Z" fill="#BEE3F8"/>
</svg>
