<svg width="113" height="262" viewBox="0 0 113 262" fill="none" xmlns="http://www.w3.org/2000/svg">
<path d="M52.131 159.426L54.8874 208.661C55.0285 211.227 60.804 247.819 60.804 247.819L68.9322 247.711L67.4884 221.65L67.81 157.591L52.131 159.426Z" fill="#E9B6A6"/>
<path d="M68.1808 161.595L83.6039 249.033C83.6039 255.19 90.8659 255.19 90.8659 249.033L89.3465 221.974L86.3932 158.809L68.1776 161.591L68.1808 161.595Z" fill="#E9B6A6"/>
<path d="M89.3465 221.977L86.3932 158.812L82.0747 159.471L84.2766 220.937L90.4064 247.514C90.4064 249.686 86.147 252.61 85.6778 253.25C87.8239 254.418 90.8626 253.017 90.8626 249.036L89.3432 221.977H89.3465Z" fill="#DD9D8B"/>
<path d="M85.5728 120.674L47.3236 122.403V122.397C40.6621 138.332 47.6813 181.014 49.5353 194.317C56.036 199.515 87.4629 199.203 93.1859 191.597C96.9399 153.449 85.5728 120.674 85.5728 120.674Z" fill="#2B6BB1"/>
<path opacity="0.4" d="M85.5727 120.674L74.7077 121.166C76.0826 125.36 85.6449 156.16 82.1567 191.597C79.5216 195.102 71.4294 197.057 62.8319 197.638C74.4451 198.459 89.4088 196.614 93.1858 191.597C96.9398 153.449 85.5727 120.674 85.5727 120.674Z" fill="#233859"/>
<path d="M70.5447 255.407C70.5709 257.825 70.6037 261.33 70.6037 261.33H67.8178L68.3001 255.479C68.3001 255.479 63.0858 261.33 57.5893 261.33C52.0928 261.33 49.3134 261.33 49.3134 261.33C49.3134 261.33 47.5971 258.255 51.617 257.116C52.0731 256.988 54.4784 256.883 55.0921 256.811C61.1202 256.102 61.3073 247.242 61.3073 247.242L69.1435 247.665L69.662 249.451C70.2264 251.387 70.5217 253.392 70.5447 255.407Z" fill="#2A4365"/>
<path d="M66.9482 247.452C66.8629 250.749 64.1195 253.398 60.7429 253.398C60.4147 253.398 60.0964 253.371 59.7814 253.325C61.2351 250.582 61.3073 247.238 61.3073 247.238L66.9482 247.452Z" fill="#E9B6A6"/>
<path d="M60.29 247.971L69.1336 248.043L69.173 246.888L60.29 246.809V247.971Z" fill="#2A4365"/>
<path d="M92.4783 255.407C92.5045 257.825 92.5373 261.33 92.5373 261.33H89.7513L90.2337 255.479C90.2337 255.479 85.0194 261.33 79.5229 261.33C74.0264 261.33 71.247 261.33 71.247 261.33C71.247 261.33 69.5307 258.255 73.5506 257.116C74.0067 256.988 76.412 256.883 77.0257 256.811C83.0538 256.102 83.2408 247.242 83.2408 247.242L91.0771 247.665L91.5956 249.451C92.16 251.387 92.4553 253.392 92.4783 255.407Z" fill="#2A4365"/>
<path d="M88.8818 247.452C88.7965 250.749 86.0532 253.398 82.6765 253.398C82.3484 253.398 82.0301 253.371 81.715 253.325C83.1687 250.582 83.2409 247.238 83.2409 247.238L88.8818 247.452Z" fill="#E9B6A6"/>
<path d="M82.2236 247.971L91.0672 248.043L91.1066 246.888L82.2236 246.809V247.971Z" fill="#2A4365"/>
<g opacity="0.2">
<path d="M75.3771 209.166L80.6275 208.284" stroke="#233859" stroke-width="0.287466" stroke-miterlimit="10"/>
<path d="M75.3969 211.453L80.6505 210.57" stroke="#233859" stroke-width="0.287466" stroke-miterlimit="10"/>
</g>
<g opacity="0.2">
<path d="M53.2171 209.166L58.4675 208.284" stroke="#233859" stroke-width="0.287466" stroke-miterlimit="10"/>
<path d="M53.2368 211.453L58.4905 210.57" stroke="#233859" stroke-width="0.287466" stroke-miterlimit="10"/>
</g>
<path d="M50.2704 192.982C56.5577 198.012 86.9674 197.711 92.5033 190.35" stroke="#2F5791" stroke-width="0.287466" stroke-linecap="round" stroke-linejoin="round"/>
<path d="M28.3138 65.3056C28.0579 62.3293 23.7624 60.7115 20.7631 59.983C17.7638 59.2545 14.21 58.7688 14.1607 60.3866C14.1148 62.0077 19.6244 63.0775 19.6244 63.0775L28.3138 65.3056Z" fill="#E9B6A6"/>
<path d="M28.3138 65.3056C28.0579 62.3293 23.7624 60.7115 20.7631 59.983C17.7638 59.2545 14.21 58.7688 14.1607 60.3866C14.1148 62.0077 19.6244 63.0775 19.6244 63.0775L28.3138 65.3056Z" fill="#DD9D8B"/>
<path d="M28.3073 65.3055C28.3073 60.6097 17.836 62.07 18.3217 62.152C18.3217 62.152 -0.15975 63.0216 0.00104316 64.7247C0.165118 66.4278 21.4949 65.8568 22.942 68.5083L28.304 65.3088L28.3073 65.3055Z" fill="#E9B6A6"/>
<path d="M48.4164 77.378C46.2637 81.9655 43.9634 85.5686 43.9634 85.5686C41.9059 79.3961 28.3008 65.3086 28.3008 65.3086L22.9388 68.5081C22.9388 68.5081 38.8278 99.9087 43.9634 100.598C47.1989 101.031 53.0991 94.8159 56.3642 89.0306C54.858 84.3577 52.7118 79.652 48.4164 77.3747V77.378Z" fill="#E9B6A6"/>
<path d="M56.3706 89.027C54.8611 84.3508 52.7183 79.6485 48.4228 77.3711C47.8978 78.4901 47.3662 79.5467 46.8575 80.5148C49.9881 86.0047 51.9734 92.3708 48.961 98.2316C51.6256 95.9739 54.4542 92.4266 56.3706 89.0303V89.027Z" fill="#DD9D8B"/>
<path d="M65.083 56.3896H61.8836C53.5617 56.9475 49.7551 71.8554 46.3358 77.3749C50.6313 79.6489 54.8579 84.3579 56.3641 89.0307C58.2805 85.6377 59.5964 82.914 59.5964 82.914L65.083 56.3962V56.3896Z" fill="#2A4365"/>
<path d="M46.093 77.3716C52.2622 80.6957 56.8137 89.6444 56.8137 89.6444L58.0672 87.4359C56.9876 80.0821 47.6287 74.2246 47.6287 74.2246L46.0832 77.3781H46.0864L46.093 77.3716Z" fill="#F5FDFF"/>
<path d="M84.6573 20.0694C77.4019 13.7131 87.5942 2.28367 94.6297 3.26156C94.6297 3.26156 90.6558 4.20335 89.6648 5.72268C89.6648 5.72268 94.7216 1.41407 100.034 8.22975C105.344 15.0454 98.6824 23.2328 94.0424 23.4067C89.4056 23.5806 84.654 20.0694 84.654 20.0694H84.6573Z" fill="#233859" stroke="#233859" stroke-width="0.355105" stroke-miterlimit="10"/>
<path d="M88.3456 5.02707C83.2101 8.36108 79.4495 15.518 84.6507 20.0695C84.6507 20.0695 89.4023 23.584 94.039 23.4068C96.4411 23.3182 99.3813 21.0769 100.927 17.989C93.0808 22.2779 88.9626 11.3571 88.3489 5.02051H88.3456V5.02707Z" fill="#233859" stroke="#233859" stroke-width="0.355105" stroke-miterlimit="10"/>
<path d="M87.5252 6.08404C86.8951 5.68041 86.0748 5.76901 85.5136 6.26452C81.123 10.14 78.5962 16.5848 83.4955 20.7983H83.4922C83.4922 20.7983 88.5228 24.4473 93.3991 24.2176C93.3991 24.2176 93.4024 24.2176 93.4056 24.2176C93.806 24.1979 94.1505 23.9223 94.2851 23.5449C95.811 19.2265 91.6074 8.68299 87.5285 6.08404H87.5252Z" fill="#EF515B"/>
<path d="M80.3223 16.0133L80.8146 15.4521C81.1854 15.6523 81.0902 16.0231 81.0902 16.0231L80.3191 16.0166L80.3223 16.0133Z" fill="black"/>
<path d="M78.0877 17.3924L78.721 16.9888C79.0229 17.2808 78.8293 17.6123 78.8293 17.6123L78.0877 17.3924Z" fill="black"/>
<path d="M57.4241 6.67846C49.1547 6.32078 46.1029 24.7891 56.0754 30.2068L58.8548 12.9625L57.4241 6.67846Z" fill="#2A4365"/>
<path d="M52.8562 17.5983C52.1507 19.2029 52.5018 21.2079 52.8562 22.8093C50.2277 19.0717 49.7289 14.2183 51.9538 9.92285C48.0882 14.7007 48.3507 26.0482 55.9113 30.301L56.5643 24.8898C54.3788 23.4984 52.8595 20.4302 52.8595 17.5983H52.8562Z" fill="#2A4365"/>
<path d="M106.22 80.1376C103.936 73.8043 99.949 60.4453 96.4181 58.6831C96.4181 58.6831 87.7287 58.6831 85.6744 70.5654C84.3783 78.0505 89.1627 83.5897 89.1627 83.5897L94.0193 90.8156C96.4082 85.9097 101.114 82.3362 106.22 80.1343H106.217L106.22 80.1376Z" fill="#2A4365"/>
<path d="M86.7443 66.5425C86.2914 67.7041 85.9173 69.0331 85.6515 70.5656C84.3553 78.054 89.1398 83.5899 89.1398 83.5899L93.9964 90.8158C95.414 87.9018 97.6553 85.4603 100.31 83.4914C93.1826 80.7186 87.4564 74.51 86.7443 66.5425Z" fill="#233859"/>
<path d="M83.4463 53.0356C87.942 56.3893 96.4017 58.6798 96.4017 58.6798C85.4251 62.5586 86.7475 74.6804 91.0299 80.8497C91.0299 80.8497 80.8572 94.1102 81.9992 105.996C83.1412 117.885 89.1463 121.77 89.1463 121.77C70.7994 136.173 51.8225 129.77 46.3326 121.77C48.8462 113.081 57.0302 96.5812 54.3066 91.6852C51.5895 86.7892 49.7584 79.2483 51.3598 76.0488C52.9612 72.8494 62.1067 59.3591 61.877 56.3893L67.8953 55.4771L83.4431 53.0389H83.4398L83.4463 53.0356Z" fill="#2A4365"/>
<path d="M54.0145 91.1341C54.113 91.3212 54.2114 91.5049 54.3132 91.6854C57.0302 96.5814 48.8527 113.081 46.3391 121.77C51.8258 129.771 70.7994 136.173 89.1529 121.77C89.1529 121.77 83.151 117.882 82.0058 105.993C80.8638 94.1039 91.0365 80.8466 91.0365 80.8466C89.2152 78.2214 87.9354 74.5264 87.9026 70.8413C85.3923 75.1696 84.1486 80.676 82.1469 85.4243C77.1655 98.1467 64.7483 96.5453 54.0211 91.1341H54.0178H54.0145Z" fill="#233859"/>
<path d="M84.9526 33.5239C82.1272 40.4807 83.8861 53.0325 83.8861 53.0325C81.5989 56.6913 74.1663 58.5191 72.1678 58.6734C70.1694 58.8243 68.3416 55.4739 68.3416 55.4739C71.8463 52.8815 72.1678 44.3496 72.1678 44.3496L84.9526 33.5305V33.5239Z" fill="#E9B6A6"/>
<path d="M83.5087 40.4643C83.7154 37.9736 84.1453 35.5224 84.9559 33.5239L72.1711 44.343C72.1711 44.343 71.9217 50.929 69.4868 54.286C75.8497 52.3335 80.3716 46.2857 83.512 40.461L83.5087 40.4643Z" fill="#E18E76"/>
<path d="M60.9385 11.3571C54.5265 15.0291 54.9137 21.533 55.4814 27.2297C55.7505 29.914 56.3051 35.9716 59.2551 40.8283C62.5694 46.2821 66.6319 47.9983 68.8404 47.913C69.9495 47.9819 73.907 46.7776 78.0877 43.4305C80.4897 41.5108 82.8885 38.715 83.9911 36.4704C85.8386 36.6509 89.2349 34.1504 88.9265 28.9722C88.6771 24.8769 85.5367 25.6579 85.5367 25.6579C85.5367 25.6579 85.3628 16.1908 80.621 11.7607C75.8858 7.33398 67.0914 7.83276 60.9385 11.3571Z" fill="#E9B6A6"/>
<path d="M90.5804 14.478C89.2973 9.42451 86.3078 6.07081 83.5678 3.91159C78.5372 -0.0491867 62.4907 -3.49476 57.1911 6.74024L58.589 13.1195C73.3754 3.5178 62.1461 25.4317 79.4101 26.8821C81.4939 27.266 81.4611 33.5304 81.4611 33.5304C81.4611 33.5304 85.1626 29.6943 85.3037 26.2816C89.6812 26.7738 88.7394 33.0513 84.8213 35.7717C82.4389 37.4288 82.6785 40.5331 83.4168 41.8687C89.8551 39.8473 95.5846 27.8403 90.5836 14.4813H90.5804V14.478Z" fill="#2A4365"/>
<path d="M90.3671 13.2214C90.285 12.8998 90.4655 13.077 90.3671 12.7652C90.4983 14.5865 90.3014 17.3035 89.9208 19.2232C89.4942 21.7861 87.7845 23.4957 85.2217 22.216C84.3652 21.7894 83.9419 20.5096 83.5153 19.6531C83.5153 21.3595 82.7113 23.9191 79.0327 24.9232C75.3476 25.9208 70.2777 19.3709 67.7838 12.1089C66.5663 8.55506 61.0239 7.48201 58.5594 13.3887C73.0998 3.37029 62.5333 25.6353 79.3806 26.9544C81.4643 27.3384 81.4315 33.6028 81.4315 33.6028C81.4315 33.6028 85.133 29.7667 85.2742 26.3539C89.6517 26.8462 88.7099 33.1237 84.7951 35.844C82.4094 37.5012 82.6982 40.5333 83.4365 41.8689C89.8748 39.8475 95.8898 27.9126 90.8921 14.5536L90.3703 13.2214H90.3671Z" fill="#233859" stroke="#233859" stroke-width="0.355105" stroke-miterlimit="10"/>
<path d="M84.4603 37.1692C85.0608 37.1692 85.5498 36.6835 85.5498 36.0797C85.5498 35.4759 85.0608 34.9902 84.4603 34.9902C83.8598 34.9902 83.3708 35.4759 83.3708 36.0797C83.3708 36.6835 83.8565 37.1692 84.4603 37.1692Z" fill="#EF515B"/>
<path d="M83.7974 52.1756C83.7974 52.1756 79.7612 57.3309 71.8232 58.6632C71.8232 58.6632 73.2736 64.9998 76.1515 64.9998C79.0294 64.9998 86.3635 55.7164 86.3635 54.2889C86.3635 52.8615 83.7909 52.1724 83.7909 52.1724H83.7941L83.7974 52.1756Z" fill="#F5FDFF"/>
<path d="M73.0473 59.7166C73.0473 59.7166 74.0153 64.1828 76.5257 64.1828C79.036 64.1828 85.4349 56.084 85.4349 54.8403" stroke="#2A4365" stroke-width="0.229973" stroke-linecap="round" stroke-linejoin="round"/>
<path d="M71.8167 58.6632C71.8167 58.6632 68.5549 64.3106 66.4121 63.0112C63.8952 61.482 66.4449 55.7492 66.9634 54.2889C67.4786 52.8287 70.6222 52.1724 70.6222 52.1724C70.6222 52.1724 69.8577 54.0789 68.9913 54.896C68.8109 56.7697 71.8167 58.6599 71.8167 58.6599V58.6632Z" fill="#F5FDFF"/>
<path d="M70.9701 58.6865C70.9701 58.6865 68.5615 62.8573 66.9798 61.8991C65.1192 60.7703 67.0028 56.5339 67.3867 55.4575" stroke="#2A4365" stroke-width="0.229973" stroke-linecap="round" stroke-linejoin="round"/>
<path d="M59.6063 11.5441C53.9489 10.494 55.3666 19.8529 55.3666 19.8529C55.3666 19.8529 55.5766 15.9512 58.6152 13.3489L59.6063 11.5408V11.5441Z" fill="#233859" stroke="#233859" stroke-width="0.355105" stroke-miterlimit="10"/>
<path d="M59.4159 8.7848C64.919 4.98154 69.3752 6.92747 73.756 11.2098C77.474 14.7703 81.3002 19.325 87.0002 17.2937C81.3527 20.06 76.9293 15.4036 73.1916 11.8038C68.8929 7.59033 65.1191 5.75926 59.4126 8.77824L59.4159 8.7848Z" fill="#233859" stroke="#233859" stroke-width="0.355105" stroke-miterlimit="10"/>
<path d="M69.7526 67.3921V70.6637" stroke="#2A4365" stroke-width="0.179244" stroke-miterlimit="10"/>
<path opacity="0.2" d="M60.1871 60.8885C56.7513 71.2975 49.7388 72.3574 50.9004 81.2503L50.2737 80.5907L49.7355 80.0689L49.0431 79.4422C48.8561 75.0121 59.3076 66.0602 60.1805 60.8853H60.1838L60.1871 60.8885Z" fill="#05101F"/>
<path d="M112.301 99.0723C112.127 97.0541 108.711 89.1195 105.613 80.791C100.32 82.4777 97.5174 84.6862 94.6625 89.336L100.005 99.1215C96.9169 102.032 85.5793 117.065 79.794 120.399L83.7482 126.44C83.7482 126.44 112.891 105.908 112.301 99.0723Z" fill="#E9B6A6"/>
<path d="M95.1908 92.473C96.4838 87.6984 107.706 82.0148 107.706 82.0148L106.145 78.356C98.4363 80.8729 93.6026 90.363 93.6026 90.363L95.1908 92.4763H95.1876L95.1908 92.473Z" fill="#F5FDFF"/>
<path d="M54.7791 24.6183C55.734 22.4098 59.9573 22.6264 59.9573 22.6264" stroke="#1B4268" stroke-width="0.740649" stroke-linecap="round" stroke-linejoin="round"/>
<path d="M66.8091 22.0224C70.678 19.7549 76.6897 23.5778 76.6897 23.5778" stroke="#1B4268" stroke-width="0.740649" stroke-linecap="round" stroke-linejoin="round"/>
<path d="M59.4979 29.3436C59.6062 30.0983 59.2682 30.7711 58.7399 30.8498C58.2116 30.9253 57.6931 30.3773 57.5848 29.6225C57.4733 28.8678 57.8145 28.1951 58.3429 28.1163C58.8712 28.0408 59.3897 28.5889 59.4979 29.3436Z" fill="#1B4268" stroke="#2B4365" stroke-width="0.355105" stroke-miterlimit="10"/>
<path d="M72.1186 27.975C72.2302 28.7363 71.8856 29.4189 71.3507 29.4976C70.8158 29.5731 70.2941 29.0218 70.1792 28.2572C70.0676 27.4959 70.4122 26.8133 70.9471 26.7379C71.482 26.6624 72.0037 27.2137 72.1186 27.9783V27.975Z" fill="#1B4268" stroke="#2B4365" stroke-width="0.355105" stroke-miterlimit="10"/>
<g opacity="0.3">
<path d="M50.9103 30.5675C51.0612 31.9753 51.7274 33.1993 52.6954 34.0886L54.8875 24.5952C52.341 25.35 50.6117 27.8373 50.9103 30.5708V30.5675Z" fill="#C6E9FB"/>
<path d="M62.0576 29.3566C61.9034 27.9423 61.2339 26.715 60.2626 25.8257L58.0673 35.3355C60.6236 34.5873 62.3562 32.0999 62.0576 29.3566Z" fill="#C6E9FB"/>
<path d="M58.4479 24.7158L55.9474 35.5448C56.2362 35.571 56.5348 35.571 56.8334 35.5513L59.2486 25.0899C58.9927 24.9455 58.7236 24.8175 58.4479 24.7158Z" fill="#C6E9FB"/>
</g>
<path d="M62.1002 29.7599C62.2085 32.8314 59.8097 35.4074 56.7415 35.5189C53.6733 35.6305 51.094 33.2284 50.9824 30.1602C50.8709 27.092 53.2729 24.5128 56.3411 24.4012C59.4126 24.2896 61.9886 26.6917 62.1002 29.7599Z" stroke="#233859" stroke-width="0.547877" stroke-linecap="round" stroke-linejoin="round"/>
<g opacity="0.3">
<path d="M65.887 29.1696C66.038 30.5774 66.7041 31.8014 67.6722 32.6907L69.8642 23.1973C67.3178 23.952 65.5884 26.4394 65.887 29.1729V29.1696Z" fill="#C6E9FB"/>
<path d="M77.0375 27.9586C76.8833 26.5443 76.2139 25.317 75.2426 24.4277L73.0472 33.9375C75.6035 33.1893 77.3362 30.702 77.0375 27.9586Z" fill="#C6E9FB"/>
<path d="M73.4246 23.3149L70.9241 34.1439C71.2129 34.1701 71.5115 34.1701 71.8101 34.1505L74.2253 23.689C73.9694 23.5446 73.7003 23.4167 73.4246 23.3149Z" fill="#C6E9FB"/>
</g>
<path d="M77.0901 28.3068C77.2016 31.375 74.7996 33.9542 71.7314 34.0658C68.6632 34.1774 66.0839 31.7753 65.9723 28.7071C65.864 25.6389 68.2628 23.0596 71.331 22.9481C74.4025 22.8365 76.9785 25.2386 77.0901 28.3068Z" stroke="#233859" stroke-width="0.547877" stroke-linecap="round" stroke-linejoin="round"/>
<path d="M61.9886 28.841C63.6556 27.9517 65.9789 28.3127 65.9789 28.3127" stroke="#233859" stroke-width="0.547877" stroke-linecap="round" stroke-linejoin="round"/>
<path d="M76.8768 26.9184L85.2611 25.8945" stroke="#233859" stroke-width="0.547877" stroke-linecap="round" stroke-linejoin="round"/>
<path d="M51.176 31.4367L55.5207 30.1963" stroke="#233859" stroke-width="0.547877" stroke-linecap="round" stroke-linejoin="round"/>
<path d="M63.8197 31.9321C64.1216 32.6573 61.0928 34.1242 63.8656 35.0003" stroke="#1B4268" stroke-width="0.415981" stroke-linecap="round" stroke-linejoin="round"/>
<g opacity="0.6">
<path d="M65.8542 41.6717C66.9896 42.0589 68.043 41.3042 68.043 41.3042C67.3768 42.7546 65.8542 41.6717 65.8542 41.6717Z" fill="#E9B6A6"/>
</g>
<path d="M64.4891 39.7353C66.3497 40.2866 68.0725 39.965 69.6082 38.4194" stroke="#4A2B5F" stroke-width="0.355105" stroke-linecap="round" stroke-linejoin="round"/>
<path d="M65.6212 39.2795C65.7295 39.1023 65.8837 39.0531 66.0216 39.0925C66.2611 39.1581 66.5039 39.0531 66.6614 38.8628C67.0126 38.4493 67.5146 38.5379 67.9347 39.1647C67.9675 39.2106 67.9937 39.2631 68.0101 39.3156C68.0134 39.3287 68.02 39.3419 68.0233 39.3583C68.3514 40.5134 66.9633 41.4027 66.0019 40.6807C65.5392 40.3329 65.2504 39.8538 65.6179 39.2795H65.6212Z" stroke="#4A2B5F" stroke-width="0.355105" stroke-linejoin="round"/>
<path opacity="0.6" d="M77.0277 124.044L75.9907 125.058L76.1417 125.213L77.1786 124.195L77.0277 124.041V124.044Z" fill="white"/>
<path opacity="0.6" d="M77.7069 124.729L76.985 125.438L77.136 125.593L77.8579 124.884L77.7069 124.729Z" fill="white"/>
<path opacity="0.6" d="M78.3009 125.354L77.579 126.062L77.73 126.217L78.4519 125.508L78.3009 125.354Z" fill="white"/>
<path opacity="0.6" d="M78.9868 126.056L77.9498 127.073L78.1007 127.228L79.1377 126.21L78.9868 126.056Z" fill="white"/>
<path opacity="0.6" d="M79.6529 126.741L78.931 127.45L79.082 127.604L79.8039 126.895L79.6529 126.741Z" fill="white"/>
<path opacity="0.6" d="M80.4077 127.513L79.6857 128.218L79.5348 128.067L80.2567 127.358L80.4077 127.513Z" fill="white"/>
<path opacity="0.6" d="M80.9262 128.041L79.8892 129.058L80.0402 129.213L81.0771 128.195L80.9262 128.041Z" fill="white"/>
<path opacity="0.6" d="M81.7564 128.888L81.0312 129.597L80.8835 129.443L81.6054 128.734L81.7564 128.888Z" fill="white"/>
<path opacity="0.6" d="M82.3537 129.501L81.6285 130.21L81.4775 130.056L82.2027 129.35L82.3537 129.501Z" fill="white"/>
<path opacity="0.6" d="M76.3288 123.361L75.6069 124.07L75.7578 124.224L76.4798 123.516L76.3288 123.361Z" fill="white"/>
<path opacity="0.6" d="M82.8918 130.059L81.8548 131.076L82.0057 131.231L83.0427 130.213L82.8918 130.059Z" fill="white"/>
<path d="M79.7907 120.401C78.3928 121.192 70.5664 128.366 70.2449 129.012C69.9233 129.658 71.016 132.858 71.0948 134.079C71.1768 135.293 77.0966 139.063 78.6389 139.47C80.178 139.874 81.9959 137.528 81.9959 137.528C81.9959 137.528 80.155 135.778 79.9089 135.778C79.6628 135.778 84.3356 130.282 83.7384 126.446C83.5546 124.779 79.7842 120.405 79.7842 120.405L79.7907 120.401Z" fill="#E9B6A6"/>
<path d="M79.922 135.775C79.8695 135.775 79.9515 135.729 80.2895 135.23C76.4108 136.828 72.5944 132.625 70.1989 129.402C70.212 130.485 71.039 133.022 71.1079 134.078C71.1899 135.293 77.1098 139.063 78.6521 139.47C80.1911 139.874 82.009 137.527 82.009 137.527C82.009 137.527 80.1681 135.778 79.922 135.778V135.775Z" fill="#DD9D8B"/>
<path d="M84.5522 30.9019L84.69 32.6115" stroke="#233859" stroke-width="0.547877" stroke-linecap="round" stroke-linejoin="round"/>
<path d="M86.0584 31.8602L84.69 31.6206" stroke="#233859" stroke-width="0.547877" stroke-linecap="round" stroke-linejoin="round"/>
<path opacity="0.4" d="M52.4329 75.2222C56.3149 77.1845 60.6596 78.2182 65.0076 78.2116C67.0487 78.2083 69.0964 77.9786 71.1244 78.1886C75.2525 78.612 78.9737 80.7909 82.9673 81.9263" stroke="#F5FDFF" stroke-width="0.229973" stroke-miterlimit="10"/>
<path opacity="0.4" d="M51.0645 78.9199C52.3016 79.8322 53.7947 80.3211 55.2747 80.7379C56.9679 81.217 58.6842 81.6304 60.4365 81.8076C63.6753 82.1358 66.9864 81.6501 70.1825 82.2835C74.373 83.1137 78.0253 85.8045 82.2257 86.5888" stroke="#F5FDFF" stroke-width="0.229973" stroke-miterlimit="10"/>
<path opacity="0.4" d="M51.77 84.3379C54.3099 85.0828 56.8924 85.7522 59.534 85.9163C61.6801 86.0508 63.8492 85.8507 65.9756 86.1526C70.0676 86.7334 73.7659 89.1289 77.8842 89.4997" stroke="#F5FDFF" stroke-width="0.229973" stroke-miterlimit="10"/>
<path d="M71.7642 59.2085L68.125 73.2271" stroke="#F5FDFF" stroke-width="0.229973" stroke-linecap="round" stroke-linejoin="round"/>
<path d="M71.1768 64.324C71.0226 64.9868 70.5665 65.4495 70.153 65.3543C69.7395 65.2592 69.5295 64.6455 69.6837 63.9794C69.838 63.3132 70.2941 62.8538 70.7076 62.949C71.121 63.0442 71.3311 63.6611 71.1768 64.324Z" fill="#F5FDFF"/>
<path d="M69.582 70.8581C69.4277 71.521 68.9716 71.9837 68.5581 71.8885C68.1447 71.7934 67.9347 71.1797 68.0889 70.5136C68.2431 69.8474 68.6992 69.388 69.1127 69.4832C69.5262 69.5783 69.7362 70.1953 69.582 70.8581Z" fill="#F5FDFF"/>
<path d="M70.6157 63.6777C70.491 64.0256 70.3892 64.3833 70.3105 64.7442" stroke="#2A4365" stroke-width="0.186008" stroke-linecap="round" stroke-linejoin="round"/>
<path d="M70.153 64.0386C70.3761 64.1436 70.6091 64.2289 70.8552 64.2978" stroke="#2A4365" stroke-width="0.186008" stroke-linecap="round" stroke-linejoin="round"/>
<path d="M68.9816 70.1616C68.8569 70.5095 68.7551 70.8671 68.6764 71.2281" stroke="#2A4365" stroke-width="0.186008" stroke-linecap="round" stroke-linejoin="round"/>
<path d="M68.522 70.5361C68.7452 70.6411 68.9782 70.7265 69.2243 70.7954" stroke="#2A4365" stroke-width="0.186008" stroke-linecap="round" stroke-linejoin="round"/>
</svg>
